<svg width="165" height="40" viewBox="0 0 165 40" fill="none" xmlns="http://www.w3.org/2000/svg">
<g filter="url(#filter0_d_1_3)">
<path d="M15.5227 4.375H20.125C22.2841 4.375 24.2017 4.85795 25.8778 5.82386C27.554 6.78977 28.8703 8.13447 29.8267 9.85795C30.7831 11.5814 31.2614 13.5795 31.2614 15.8523C31.2614 18.125 30.7831 20.1278 29.8267 21.8608C28.8703 23.5937 27.554 24.9479 25.8778 25.9233C24.2017 26.8987 22.2841 27.3864 20.125 27.3864H15.5227C13.3636 27.3864 11.446 26.9034 9.76989 25.9375C8.09375 24.9716 6.77746 23.6269 5.82102 21.9034C4.86458 20.1799 4.38636 18.1818 4.38636 15.9091C4.38636 13.6364 4.86458 11.6335 5.82102 9.90057C6.77746 8.16761 8.09375 6.81345 9.76989 5.83807C11.446 4.86269 13.3636 4.375 15.5227 4.375ZM15.5227 7.5C13.875 7.5 12.483 7.84564 11.3466 8.53693C10.2197 9.22822 9.36269 10.2036 8.77557 11.4631C8.19792 12.7225 7.90909 14.2045 7.90909 15.9091C7.90909 17.5947 8.19792 19.0625 8.77557 20.3125C9.36269 21.5625 10.2197 22.5331 11.3466 23.2244C12.483 23.9157 13.875 24.2614 15.5227 24.2614H20.125C21.7727 24.2614 23.16 23.9157 24.2869 23.2244C25.4233 22.5331 26.2803 21.5578 26.858 20.2983C27.4451 19.0388 27.7386 17.5568 27.7386 15.8523C27.7386 14.1667 27.4451 12.6989 26.858 11.4489C26.2803 10.1989 25.4233 9.22822 24.2869 8.53693C23.16 7.84564 21.7727 7.5 20.125 7.5H15.5227ZM19.6136 0.397727V31.1932H16.0909V0.397727H19.6136ZM36.9893 30H33.2962L43.978 0.90909H47.6143L58.2962 30H54.603L45.9098 5.51136H45.6825L36.9893 30ZM38.353 18.6364H53.2393V21.7614H38.353V18.6364ZM61.8615 30V27.4432L77.5433 4.03409H61.6911V0.90909H81.7479V3.46591L66.0661 26.875H81.9183V30H61.8615ZM89.0206 30H85.3274L96.0092 0.90909H99.6456L110.327 30H106.634L97.9411 5.51136H97.7138L89.0206 30ZM90.3842 18.6364H105.271V21.7614H90.3842V18.6364ZM114.859 30V0.90909H124.688C126.961 0.90909 128.826 1.29735 130.285 2.07386C131.743 2.84091 132.823 3.89678 133.523 5.24148C134.224 6.58617 134.575 8.11553 134.575 9.82955C134.575 11.5436 134.224 13.0634 133.523 14.3892C132.823 15.715 131.748 16.7566 130.299 17.5142C128.85 18.2623 126.999 18.6364 124.745 18.6364H116.79V15.4545H124.631C126.184 15.4545 127.434 15.2273 128.381 14.7727C129.338 14.3182 130.029 13.6742 130.455 12.8409C130.891 11.9981 131.109 10.9943 131.109 9.82955C131.109 8.66477 130.891 7.64678 130.455 6.77557C130.02 5.90436 129.324 5.23201 128.367 4.75852C127.411 4.27557 126.147 4.03409 124.575 4.03409H118.381V30H114.859ZM128.552 16.9318L135.711 30H131.62L124.575 16.9318H128.552ZM138.854 4.03409V0.90909H160.672V4.03409H151.524V30H148.001V4.03409H138.854Z" fill="black"/>
<path d="M25.8778 5.82386L26.3771 4.95743H26.3771L25.8778 5.82386ZM29.8267 9.85796L28.9523 10.3432L28.9523 10.3432L29.8267 9.85796ZM29.8267 21.8608L28.9512 21.3776V21.3776L29.8267 21.8608ZM25.8778 25.9233L26.3808 26.7876L25.8778 25.9233ZM9.76989 25.9375L10.2692 25.0711L9.76989 25.9375ZM9.76989 5.83807L10.2728 6.70238L9.76989 5.83807ZM11.3466 8.53693L10.8269 7.68259L10.8237 7.68453L11.3466 8.53693ZM8.77557 11.4631L7.86919 11.0405L7.86661 11.0462L8.77557 11.4631ZM8.77557 20.3125L7.86779 20.732L7.87044 20.7376L8.77557 20.3125ZM11.3466 23.2244L10.8237 24.0768L10.8269 24.0788L11.3466 23.2244ZM24.2869 23.2244L23.7672 22.3701L23.764 22.372L24.2869 23.2244ZM26.858 20.2983L25.9516 19.8758L25.949 19.8814L26.858 20.2983ZM26.858 11.4489L25.9502 11.8684L25.9528 11.874L26.858 11.4489ZM24.2869 8.53693L23.764 9.38933L23.7672 9.39127L24.2869 8.53693ZM19.6136 0.397728H20.6136V-0.602272H19.6136V0.397728ZM19.6136 31.1932V32.1932H20.6136V31.1932H19.6136ZM16.0909 31.1932H15.0909V32.1932H16.0909V31.1932ZM16.0909 0.397728V-0.602272H15.0909V0.397728H16.0909ZM15.5227 5.375H20.125V3.375H15.5227V5.375ZM20.125 5.375C22.1296 5.375 23.8713 5.82173 25.3785 6.69029L26.3771 4.95743C24.5321 3.89418 22.4385 3.375 20.125 3.375V5.375ZM25.3785 6.69029C26.8943 7.56376 28.0822 8.77531 28.9523 10.3432L30.7011 9.37272C29.6583 7.49363 28.2137 6.01579 26.3771 4.95743L25.3785 6.69029ZM28.9523 10.3432C29.8145 11.8968 30.2614 13.7231 30.2614 15.8523H32.2614C32.2614 13.436 31.7518 11.266 30.7011 9.37272L28.9523 10.3432ZM30.2614 15.8523C30.2614 17.9813 29.8146 19.8133 28.9512 21.3776L30.7022 22.344C31.7517 20.4424 32.2614 18.2687 32.2614 15.8523H30.2614ZM28.9512 21.3776C28.0803 22.9556 26.8913 24.1766 25.3749 25.059L26.3808 26.7876C28.2167 25.7193 29.6603 24.2319 30.7022 22.344L28.9512 21.3776ZM25.3749 25.059C23.8683 25.9357 22.1279 26.3864 20.125 26.3864V28.3864C22.4403 28.3864 24.5351 27.8616 26.3808 26.7876L25.3749 25.059ZM20.125 26.3864H15.5227V28.3864H20.125V26.3864ZM15.5227 26.3864C13.5181 26.3864 11.7764 25.9396 10.2692 25.0711L9.27059 26.8039C11.1156 27.8672 13.2092 28.3864 15.5227 28.3864V26.3864ZM10.2692 25.0711C8.75346 24.1976 7.56549 22.9861 6.69541 21.4182L4.94664 22.3886C5.98943 24.2677 7.43404 25.7456 9.27059 26.8039L10.2692 25.0711ZM6.69541 21.4182C5.83321 19.8645 5.38636 18.0383 5.38636 15.9091H3.38636C3.38636 18.3254 3.89596 20.4953 4.94664 22.3886L6.69541 21.4182ZM5.38636 15.9091C5.38636 13.7801 5.83317 11.9481 6.69653 10.3838L4.94551 9.41736C3.896 11.319 3.38636 13.4927 3.38636 15.9091H5.38636ZM6.69653 10.3838C7.56745 8.80577 8.75645 7.5848 10.2728 6.70238L9.26693 4.97376C7.43105 6.04209 5.98748 7.52946 4.94551 9.41736L6.69653 10.3838ZM10.2728 6.70238C11.7795 5.82565 13.5198 5.375 15.5227 5.375V3.375C13.2075 3.375 11.1126 3.89973 9.26693 4.97376L10.2728 6.70238ZM15.5227 6.5C13.7353 6.5 12.1533 6.87568 10.8269 7.68259L11.8663 9.39127C12.8126 8.81561 14.0147 8.5 15.5227 8.5V6.5ZM10.8237 7.68453C9.5208 8.48379 8.53476 9.61286 7.86921 11.0406L9.68193 11.8856C10.1906 10.7943 10.9186 9.97265 11.8695 9.38933L10.8237 7.68453ZM7.86661 11.0462C7.21681 12.463 6.90909 14.093 6.90909 15.9091H8.90909C8.90909 14.3161 9.17902 12.9821 9.68453 11.88L7.86661 11.0462ZM6.90909 15.9091C6.90909 17.7078 7.21734 19.3244 7.86781 20.732L9.68333 19.893C9.17849 18.8006 8.90909 17.4816 8.90909 15.9091H6.90909ZM7.87044 20.7376C8.53664 22.156 9.52276 23.2788 10.8237 24.0768L11.8695 22.372C10.9166 21.7875 10.1887 20.969 9.6807 19.8874L7.87044 20.7376ZM10.8269 24.0788C12.1533 24.8857 13.7353 25.2614 15.5227 25.2614V23.2614C14.0147 23.2614 12.8126 22.9458 11.8663 22.3701L10.8269 24.0788ZM15.5227 25.2614H20.125V23.2614H15.5227V25.2614ZM20.125 25.2614C21.9121 25.2614 23.4911 24.8858 24.8098 24.0768L23.764 22.372C22.829 22.9456 21.6334 23.2614 20.125 23.2614V25.2614ZM24.8067 24.0788C26.1209 23.2793 27.1097 22.148 27.7669 20.7152L25.949 19.8814C25.4509 20.9675 24.7257 21.787 23.7672 22.3701L24.8067 24.0788ZM27.7643 20.7208C28.4255 19.3025 28.7386 17.6704 28.7386 15.8523H26.7386C26.7386 17.4432 26.4647 18.7751 25.9516 19.8758L27.7643 20.7208ZM28.7386 15.8523C28.7386 14.0515 28.4249 12.4328 27.7631 11.0237L25.9528 11.874C26.4652 12.9649 26.7386 14.2819 26.7386 15.8523H28.7386ZM27.7657 11.0294C27.1079 9.60584 26.1189 8.48088 24.8067 7.68259L23.7672 9.39127C24.7277 9.97556 25.4527 10.7919 25.9502 11.8684L27.7657 11.0294ZM24.8098 7.68453C23.4911 6.87554 21.9121 6.5 20.125 6.5V8.5C21.6334 8.5 22.829 8.81574 23.764 9.38933L24.8098 7.68453ZM20.125 6.5H15.5227V8.5H20.125V6.5ZM18.6136 0.397728V31.1932H20.6136V0.397728H18.6136ZM19.6136 30.1932H16.0909V32.1932H19.6136V30.1932ZM17.0909 31.1932V0.397728H15.0909V31.1932H17.0909ZM16.0909 1.39773H19.6136V-0.602272H16.0909V1.39773ZM36.9893 30V31H37.6955L37.9317 30.3345L36.9893 30ZM33.2962 30L32.3574 29.6553L31.8637 31H33.2962V30ZM43.978 0.90909V-0.09091H43.2799L43.0393 0.564404L43.978 0.90909ZM47.6143 0.90909L48.5531 0.564404L48.3124 -0.09091H47.6143V0.90909ZM58.2962 30V31H59.7286L59.2349 29.6553L58.2962 30ZM54.603 30L53.6606 30.3345L53.8968 31H54.603V30ZM45.9098 5.51136L46.8522 5.17683L46.616 4.51136H45.9098V5.51136ZM45.6825 5.51136V4.51136H44.9764L44.7401 5.17683L45.6825 5.51136ZM38.353 18.6364V17.6364H37.353V18.6364H38.353ZM53.2393 18.6364H54.2393V17.6364H53.2393V18.6364ZM53.2393 21.7614V22.7614H54.2393V21.7614H53.2393ZM38.353 21.7614H37.353V22.7614H38.353V21.7614ZM36.9893 29H33.2962V31H36.9893V29ZM34.2349 30.3447L44.9167 1.25378L43.0393 0.564404L32.3574 29.6553L34.2349 30.3447ZM43.978 1.90909H47.6143V-0.09091H43.978V1.90909ZM46.6756 1.25378L57.3574 30.3447L59.2349 29.6553L48.5531 0.564404L46.6756 1.25378ZM58.2962 29H54.603V31H58.2962V29ZM55.5454 29.6655L46.8522 5.17683L44.9674 5.8459L53.6606 30.3345L55.5454 29.6655ZM45.9098 4.51136H45.6825V6.51136H45.9098V4.51136ZM44.7401 5.17683L36.047 29.6655L37.9317 30.3345L46.6249 5.8459L44.7401 5.17683ZM38.353 19.6364H53.2393V17.6364H38.353V19.6364ZM52.2393 18.6364V21.7614H54.2393V18.6364H52.2393ZM53.2393 20.7614H38.353V22.7614H53.2393V20.7614ZM39.353 21.7614V18.6364H37.353V21.7614H39.353ZM61.8615 30H60.8615V31H61.8615V30ZM61.8615 27.4432L61.0307 26.8866L60.8615 27.1392V27.4432H61.8615ZM77.5433 4.03409L78.3741 4.59065L79.4169 3.03409H77.5433V4.03409ZM61.6911 4.03409H60.6911V5.03409H61.6911V4.03409ZM61.6911 0.90909V-0.09091H60.6911V0.90909H61.6911ZM81.7479 0.90909H82.7479V-0.09091H81.7479V0.90909ZM81.7479 3.46591L82.5787 4.02247L82.7479 3.76991V3.46591H81.7479ZM66.066 26.875L65.2352 26.3184L64.1925 27.875H66.066V26.875ZM81.9183 26.875H82.9183V25.875H81.9183V26.875ZM81.9183 30V31H82.9183V30H81.9183ZM62.8615 30V27.4432H60.8615V30H62.8615ZM62.6923 27.9997L78.3741 4.59065L76.7125 3.47753L61.0307 26.8866L62.6923 27.9997ZM77.5433 3.03409H61.6911V5.03409H77.5433V3.03409ZM62.6911 4.03409V0.90909H60.6911V4.03409H62.6911ZM61.6911 1.90909H81.7479V-0.09091H61.6911V1.90909ZM80.7479 0.90909V3.46591H82.7479V0.90909H80.7479ZM80.9171 2.90935L65.2352 26.3184L66.8969 27.4316L82.5787 4.02247L80.9171 2.90935ZM66.066 27.875H81.9183V25.875H66.066V27.875ZM80.9183 26.875V30H82.9183V26.875H80.9183ZM81.9183 29H61.8615V31H81.9183V29ZM89.0206 30V31H89.7267L89.963 30.3345L89.0206 30ZM85.3274 30L84.3887 29.6553L83.8949 31H85.3274V30ZM96.0092 0.90909V-0.09091H95.3111L95.0705 0.564404L96.0092 0.90909ZM99.6456 0.90909L100.584 0.564404L100.344 -0.09091H99.6456V0.90909ZM110.327 30V31H111.76L111.266 29.6553L110.327 30ZM106.634 30L105.692 30.3345L105.928 31H106.634V30ZM97.941 5.51136L98.8834 5.17683L98.6472 4.51136H97.941V5.51136ZM97.7138 5.51136V4.51136H97.0076L96.7714 5.17683L97.7138 5.51136ZM90.3842 18.6364V17.6364H89.3842V18.6364H90.3842ZM105.271 18.6364H106.271V17.6364H105.271V18.6364ZM105.271 21.7614V22.7614H106.271V21.7614H105.271ZM90.3842 21.7614H89.3842V22.7614H90.3842V21.7614ZM89.0206 29H85.3274V31H89.0206V29ZM86.2661 30.3447L96.948 1.25378L95.0705 0.564404L84.3887 29.6553L86.2661 30.3447ZM96.0092 1.90909H99.6456V-0.09091H96.0092V1.90909ZM98.7069 1.25378L109.389 30.3447L111.266 29.6553L100.584 0.564404L98.7069 1.25378ZM110.327 29H106.634V31H110.327V29ZM107.577 29.6655L98.8834 5.17683L96.9987 5.8459L105.692 30.3345L107.577 29.6655ZM97.941 4.51136H97.7138V6.51136H97.941V4.51136ZM96.7714 5.17683L88.0782 29.6655L89.963 30.3345L98.6562 5.8459L96.7714 5.17683ZM90.3842 19.6364H105.271V17.6364H90.3842V19.6364ZM104.271 18.6364V21.7614H106.271V18.6364H104.271ZM105.271 20.7614H90.3842V22.7614H105.271V20.7614ZM91.3842 21.7614V18.6364H89.3842V21.7614H91.3842ZM114.859 30H113.859V31H114.859V30ZM114.859 0.90909V-0.09091H113.859V0.90909H114.859ZM130.285 2.07386L129.815 2.95654L129.819 2.95891L130.285 2.07386ZM133.523 5.24148L132.637 5.70362V5.70362L133.523 5.24148ZM133.523 14.3892L132.639 13.9219L133.523 14.3892ZM130.299 17.5142L130.758 18.4028L130.762 18.4004L130.299 17.5142ZM116.79 18.6364H115.79V19.6364H116.79V18.6364ZM116.79 15.4545V14.4545H115.79V15.4545H116.79ZM128.381 14.7727L127.952 13.8695L127.949 13.8712L128.381 14.7727ZM130.455 12.8409L129.567 12.3818L129.565 12.3856L130.455 12.8409ZM128.367 4.75852L127.916 5.6512L127.924 5.65472L128.367 4.75852ZM118.381 4.03409V3.03409H117.381V4.03409H118.381ZM118.381 30V31H119.381V30H118.381ZM128.552 16.9318L129.429 16.4514L129.144 15.9318H128.552V16.9318ZM135.711 30V31H137.399L136.588 29.5195L135.711 30ZM131.62 30L130.74 30.4746L131.023 31H131.62V30ZM124.575 16.9318V15.9318H122.899L123.694 17.4064L124.575 16.9318ZM115.859 30V0.90909H113.859V30H115.859ZM114.859 1.90909H124.688V-0.09091H114.859V1.90909ZM124.688 1.90909C126.856 1.90909 128.545 2.28052 129.815 2.95653L130.755 1.19119C129.108 0.314179 127.066 -0.09091 124.688 -0.09091V1.90909ZM129.819 2.95891C131.114 3.63978 132.038 4.55525 132.637 5.70362L134.41 4.77934C133.607 3.23831 132.372 2.04203 130.75 1.18882L129.819 2.95891ZM132.637 5.70362C133.254 6.88793 133.575 8.25524 133.575 9.82954H135.575C135.575 7.97582 135.195 6.28442 134.41 4.77934L132.637 5.70362ZM133.575 9.82954C133.575 11.4042 133.254 12.7596 132.639 13.9219L134.408 14.8565C135.195 13.3673 135.575 11.683 135.575 9.82954H133.575ZM132.639 13.9219C132.042 15.0524 131.122 15.9554 129.836 16.628L130.762 18.4004C132.374 17.5579 133.604 16.3775 134.408 14.8565L132.639 13.9219ZM129.84 16.6257C128.577 17.278 126.897 17.6364 124.745 17.6364V19.6364C127.101 19.6364 129.123 19.2466 130.758 18.4027L129.84 16.6257ZM124.745 17.6364H116.79V19.6364H124.745V17.6364ZM117.79 18.6364V15.4545H115.79V18.6364H117.79ZM116.79 16.4545H124.631V14.4545H116.79V16.4545ZM124.631 16.4545C126.268 16.4545 127.683 16.2171 128.814 15.6742L127.949 13.8712C127.186 14.2375 126.1 14.4545 124.631 14.4545V16.4545ZM128.811 15.6759C129.938 15.1399 130.806 14.3509 131.346 13.2962L129.565 12.3856C129.252 12.9976 128.737 13.4964 127.952 13.8695L128.811 15.6759ZM131.344 13.3001C131.867 12.2866 132.109 11.1182 132.109 9.82954H130.109C130.109 10.8704 129.914 11.7096 129.567 12.3818L131.344 13.3001ZM132.109 9.82954C132.109 8.53965 131.867 7.36306 131.35 6.32835L129.561 7.22278C129.915 7.9305 130.109 8.7899 130.109 9.82954H132.109ZM131.35 6.32835C130.807 5.24358 129.943 4.42264 128.811 3.86233L127.924 5.65472C128.705 6.04138 129.232 6.56514 129.561 7.22278L131.35 6.32835ZM128.818 3.86587C127.672 3.28714 126.236 3.03409 124.575 3.03409V5.03409C126.058 5.03409 127.15 5.264 127.916 5.65117L128.818 3.86587ZM124.575 3.03409H118.381V5.03409H124.575V3.03409ZM117.381 4.03409V30H119.381V4.03409H117.381ZM118.381 29H114.859V31H118.381V29ZM127.675 17.4123L134.834 30.4805L136.588 29.5195L129.429 16.4514L127.675 17.4123ZM135.711 29H131.62V31H135.711V29ZM132.5 29.5254L125.455 16.4573L123.694 17.4064L130.74 30.4746L132.5 29.5254ZM124.575 17.9318H128.552V15.9318H124.575V17.9318ZM138.854 4.03409H137.854V5.03409H138.854V4.03409ZM138.854 0.90909V-0.09091H137.854V0.90909H138.854ZM160.672 0.90909H161.672V-0.09091H160.672V0.90909ZM160.672 4.03409V5.03409H161.672V4.03409H160.672ZM151.524 4.03409V3.03409H150.524V4.03409H151.524ZM151.524 30V31H152.524V30H151.524ZM148.001 30H147.001V31H148.001V30ZM148.001 4.03409H149.001V3.03409H148.001V4.03409ZM139.854 4.03409V0.90909H137.854V4.03409H139.854ZM138.854 1.90909H160.672V-0.09091H138.854V1.90909ZM159.672 0.90909V4.03409H161.672V0.90909H159.672ZM160.672 3.03409H151.524V5.03409H160.672V3.03409ZM150.524 4.03409V30H152.524V4.03409H150.524ZM151.524 29H148.001V31H151.524V29ZM149.001 30V4.03409H147.001V30H149.001ZM148.001 3.03409H138.854V5.03409H148.001V3.03409Z" fill="black"/>
</g>
<defs>
<filter id="filter0_d_1_3" x="0.386353" y="0.397736" width="164.286" height="38.7954" filterUnits="userSpaceOnUse" color-interpolation-filters="sRGB">
<feFlood flood-opacity="0" result="BackgroundImageFix"/>
<feColorMatrix in="SourceAlpha" type="matrix" values="0 0 0 0 0 0 0 0 0 0 0 0 0 0 0 0 0 0 127 0" result="hardAlpha"/>
<feOffset dy="4"/>
<feGaussianBlur stdDeviation="2"/>
<feComposite in2="hardAlpha" operator="out"/>
<feColorMatrix type="matrix" values="0 0 0 0 0 0 0 0 0 0 0 0 0 0 0 0 0 0 0.25 0"/>
<feBlend mode="normal" in2="BackgroundImageFix" result="effect1_dropShadow_1_3"/>
<feBlend mode="normal" in="SourceGraphic" in2="effect1_dropShadow_1_3" result="shape"/>
</filter>
</defs>
</svg>
